<svg style="position: absolute; width: 0; height: 0;" width="0" height="0" version="1.1"
     xmlns="http://www.w3.org/2000/svg" xmlns:xlink="http://www.w3.org/1999/xlink">

    <defs>

        <symbol id="arrow" viewBox="0 0 12 7">
            <path fill-rule="evenodd" clip-rule="evenodd" d="M0.558058 0.558058C0.802136 0.313981 1.19786 0.313981 1.44194 0.558058L6 5.11612L10.5581 0.558058C10.8021 0.313981 11.1979 0.313981 11.4419 0.558058C11.686 0.802136 11.686 1.19786 11.4419 1.44194L6.44194 6.44194C6.19786 6.68602 5.80214 6.68602 5.55806 6.44194L0.558058 1.44194C0.313981 1.19786 0.313981 0.802136 0.558058 0.558058Z"/>
        </symbol>

        <symbol id="telephone" viewBox="0 0 24 24" fill="none">
            <path d="M17 2H7C5.89543 2 5 2.89543 5 4V20C5 21.1046 5.89543 22 7 22H17C18.1046 22 19 21.1046 19 20V4C19 2.89543 18.1046 2 17 2Z" stroke="#1E2E36" stroke-width="1.5" stroke-linecap="round" stroke-linejoin="round"/>
            <path d="M12 18H12.01" stroke="#1E2E36" stroke-width="1.5" stroke-linecap="round" stroke-linejoin="round"/>
        </symbol>

        <symbol id="telephone2" viewBox="0 0 24 24" fill="none">
          <path d="M17 2H7C5.89543 2 5 2.89543 5 4V20C5 21.1046 5.89543 22 7 22H17C18.1046 22 19 21.1046 19 20V4C19 2.89543 18.1046 2 17 2Z" stroke="#44C697" stroke-width="1.5" stroke-linecap="round" stroke-linejoin="round"/>
          <path d="M12 18H12.01" stroke="#44C697" stroke-width="1.5" stroke-linecap="round" stroke-linejoin="round"/>
        </symbol>

        <symbol id="tg" viewBox="0 0 22 19">
            <path fill-rule="evenodd" clip-rule="evenodd" d="M8.6736 12.0686L8.67319 12.0683L8.67365 12.0678L8.67366 12.0677L8.67373 12.0678L17.9473 3.69909C18.3543 3.33786 17.8584 3.16171 17.3181 3.48936L5.87259 10.7102L0.928757 9.16714C-0.138893 8.84024 -0.14656 8.10659 1.16846 7.57914L20.4335 0.150643C21.3133 -0.248824 22.1626 0.361976 21.8267 1.70868L18.5459 17.1692C18.3168 18.2678 17.6529 18.5306 16.7332 18.0231L11.7355 14.3307L9.33332 16.6666C9.32575 16.6739 9.31821 16.6813 9.31072 16.6886C9.04204 16.9501 8.81975 17.1666 8.33332 17.1666L8.6736 12.0686Z"/>
        </symbol>
        
        <symbol id="fb" viewBox="0 0 11 22">
            <path fill-rule="evenodd" clip-rule="evenodd" d="M7.08464 21.7596V10.8785H10.0883L10.4863 7.12884H7.08464L7.08974 5.25209C7.08974 4.27412 7.18266 3.7501 8.58731 3.7501H10.4651V0H7.461C3.85262 0 2.58257 1.81899 2.58257 4.87797V7.12926H0.333344V10.8789H2.58257V21.7596H7.08464Z"/>
        </symbol>

        <symbol id="ig" viewBox="0 0 22 22">
            <path fill-rule="evenodd" clip-rule="evenodd" d="M6.60274 0.397758C7.74053 0.34598 8.10409 0.333313 11.001 0.333313H10.9977C13.8955 0.333313 14.2577 0.34598 15.3955 0.397758C16.5311 0.449759 17.3066 0.629538 17.9866 0.893319C18.6889 1.16554 19.2822 1.52999 19.8755 2.12333C20.4689 2.71623 20.8333 3.31134 21.1067 4.01291C21.3689 4.69114 21.5489 5.46625 21.6022 6.60182C21.6533 7.73961 21.6667 8.10317 21.6667 11.0001C21.6667 13.897 21.6533 14.2597 21.6022 15.3975C21.5489 16.5326 21.3689 17.3079 21.1067 17.9864C20.8333 18.6877 20.4689 19.2828 19.8755 19.8757C19.2829 20.4691 18.6886 20.8344 17.9873 21.1069C17.3086 21.3706 16.5326 21.5504 15.3971 21.6024C14.2593 21.6542 13.8968 21.6669 10.9997 21.6669C8.10298 21.6669 7.73964 21.6542 6.60185 21.6024C5.46651 21.5504 4.69117 21.3706 4.01249 21.1069C3.31137 20.8344 2.71626 20.4691 2.12358 19.8757C1.53047 19.2828 1.16602 18.6877 0.893349 17.9862C0.629791 17.3079 0.450011 16.5328 0.397789 15.3972C0.346232 14.2595 0.333344 13.897 0.333344 11.0001C0.333344 8.10317 0.346677 7.73939 0.397566 6.6016C0.448678 5.46648 0.62868 4.69114 0.893127 4.01268C1.16646 3.31134 1.53091 2.71623 2.12425 2.12333C2.71715 1.53021 3.31226 1.16577 4.01383 0.893319C4.69206 0.629538 5.46717 0.449759 6.60274 0.397758ZM10.6455 2.25547C10.4298 2.25538 10.23 2.25529 10.0442 2.25558V2.25291C8.05614 2.25513 7.6748 2.26847 6.69079 2.31291C5.65078 2.36069 5.08611 2.53402 4.7101 2.68069C4.21232 2.87447 3.85676 3.10559 3.48342 3.47892C3.11009 3.85226 2.87853 4.20782 2.68519 4.7056C2.53919 5.08161 2.36541 5.64606 2.31786 6.68607C2.26674 7.81052 2.25652 8.14653 2.25652 10.995C2.25652 13.8435 2.26674 14.1813 2.31786 15.3057C2.36519 16.3457 2.53919 16.9102 2.68519 17.2857C2.87897 17.7837 3.11009 18.1384 3.48342 18.5117C3.85676 18.8851 4.21232 19.1162 4.7101 19.3095C5.08633 19.4555 5.65078 19.6293 6.69079 19.6773C7.81525 19.7284 8.1528 19.7395 11.0011 19.7395C13.8491 19.7395 14.1869 19.7284 15.3113 19.6773C16.3513 19.6298 16.9162 19.4564 17.2918 19.3098C17.7898 19.1164 18.1442 18.8853 18.5176 18.512C18.8909 18.1389 19.1225 17.7844 19.3158 17.2866C19.4618 16.9111 19.6356 16.3466 19.6831 15.3066C19.7343 14.1821 19.7454 13.8444 19.7454 10.9977C19.7454 8.15097 19.7343 7.81319 19.6831 6.68873C19.6358 5.64872 19.4618 5.08427 19.3158 4.70871C19.122 4.21093 18.8909 3.85537 18.5176 3.48203C18.1445 3.1087 17.7896 2.87758 17.2918 2.68425C16.9158 2.53825 16.3513 2.36447 15.3113 2.31691C14.1866 2.2658 13.8491 2.25558 11.0011 2.25558L10.6455 2.25547ZM5.52328 11C5.52328 7.97481 7.97598 5.52212 11.0011 5.52212H11.0009C14.026 5.52212 16.4781 7.97481 16.4781 11C16.4781 14.0251 14.0263 16.4767 11.0011 16.4767C7.97598 16.4767 5.52328 14.0251 5.52328 11ZM14.5567 11.0002C14.5567 9.03644 12.9647 7.44464 11.0011 7.44464C9.03728 7.44464 7.44549 9.03644 7.44549 11.0002C7.44549 12.9638 9.03728 14.5558 11.0011 14.5558C12.9647 14.5558 14.5567 12.9638 14.5567 11.0002ZM15.4149 5.30636C15.4149 4.59946 15.9882 4.02679 16.6949 4.02679V4.02635C17.4016 4.02635 17.9749 4.59969 17.9749 5.30636C17.9749 6.01303 17.4016 6.58637 16.6949 6.58637C15.9882 6.58637 15.4149 6.01303 15.4149 5.30636Z"/>
        </symbol>

        <symbol id="trash" viewBox="0 0 30 31">
            <g clip-path="url(#clip0_29850_44)">
                <path fill-rule="evenodd" clip-rule="evenodd" d="M11.25 26.4375C11.0774 26.4375 10.9375 26.5774 10.9375 26.75C10.9375 26.9226 11.0774 27.0625 11.25 27.0625C11.4226 27.0625 11.5625 26.9226 11.5625 26.75C11.5625 26.5774 11.4226 26.4375 11.25 26.4375ZM9.0625 26.75C9.0625 25.5419 10.0419 24.5625 11.25 24.5625C12.4581 24.5625 13.4375 25.5419 13.4375 26.75C13.4375 27.9581 12.4581 28.9375 11.25 28.9375C10.0419 28.9375 9.0625 27.9581 9.0625 26.75Z" fill="#1E2E36"/>
                <path fill-rule="evenodd" clip-rule="evenodd" d="M25 26.4375C24.8274 26.4375 24.6875 26.5774 24.6875 26.75C24.6875 26.9226 24.8274 27.0625 25 27.0625C25.1726 27.0625 25.3125 26.9226 25.3125 26.75C25.3125 26.5774 25.1726 26.4375 25 26.4375ZM22.8125 26.75C22.8125 25.5419 23.7919 24.5625 25 24.5625C26.2081 24.5625 27.1875 25.5419 27.1875 26.75C27.1875 27.9581 26.2081 28.9375 25 28.9375C23.7919 28.9375 22.8125 27.9581 22.8125 26.75Z" fill="#1E2E36"/>
                <path fill-rule="evenodd" clip-rule="evenodd" d="M0.3125 1.75C0.3125 1.23223 0.732233 0.8125 1.25 0.8125H6.25C6.69684 0.8125 7.08158 1.12786 7.16926 1.56601L8.26939 7.0625H28.75C29.0294 7.0625 29.2943 7.18713 29.4724 7.4024C29.6505 7.61768 29.7233 7.90116 29.6709 8.17563L27.6696 18.6701C27.5124 19.4615 27.0819 20.1723 26.4535 20.6781C25.8275 21.182 25.0449 21.4506 24.2418 21.4375H12.1083C11.3051 21.4506 10.5225 21.182 9.89656 20.6781C9.26841 20.1725 8.83804 19.4621 8.68069 18.6713L6.59069 8.2291C6.5834 8.20006 6.57746 8.17049 6.57295 8.14044L5.48155 2.6875H1.25C0.732233 2.6875 0.3125 2.26776 0.3125 1.75ZM8.64466 8.9375L10.5195 18.3049C10.591 18.6645 10.7867 18.9876 11.0723 19.2176C11.358 19.4475 11.7154 19.5698 12.082 19.5626L12.1 19.5625H24.25L24.268 19.5626C24.6346 19.5698 24.992 19.4475 25.2778 19.2176C25.5625 18.9883 25.7579 18.6664 25.8299 18.3079L25.8305 18.3049L27.6169 8.9375H8.64466Z" fill="#1E2E36"/>
            </g>
        </symbol>

        <symbol id="arrow-slider" viewBox="0 0 8 12">
            <path d="M0.680837 5.86955C0.680837 5.65916 0.759128 5.44879 0.915382 5.28839L5.83484 0.240819C6.14778 -0.0802729 6.65515 -0.0802729 6.96797 0.240819C7.28078 0.56178 7.28078 1.08227 6.96797 1.40339L2.61496 5.86955L6.96781 10.3357C7.28063 10.6568 7.28063 11.1773 6.96781 11.4982C6.655 11.8194 6.14763 11.8194 5.83469 11.4982L0.915231 6.4507C0.758951 6.29022 0.680837 6.07986 0.680837 5.86955Z"/>
        </symbol>

        <symbol id="tab-1" viewBox="0 0 100 100">
            <g clip-path="url(#clip0_628_603)">
              <path d="M46.6655 87.1791H16.7647C14.2771 87.1763 12.261 85.1604 12.2583 82.6727V71.057C12.2612 68.5693 14.2771 66.5532 16.7647 66.5505H46.6655C49.1531 66.5534 51.1692 68.5693 51.1719 71.057V82.6727C51.169 85.1604 49.1531 87.1764 46.6655 87.1791ZM16.7647 68.8941C15.5708 68.8955 14.6032 69.863 14.6021 71.0568V82.6725C14.6034 83.8665 15.571 84.834 16.7647 84.8352H46.6655C47.8594 84.8338 48.8268 83.8663 48.8281 82.6725V71.0568C48.8268 69.8629 47.8592 68.8955 46.6655 68.8941H16.7647Z" />
              <path d="M10.0955 87.1791H4.50643C2.01875 87.1764 0.00287163 85.1603 0 82.6726V60.4356C0.00287163 57.948 2.01875 55.9319 4.50643 55.9292H10.0953C12.583 55.9321 14.599 57.948 14.6017 60.4356V82.6726C14.599 85.1603 12.5831 87.1764 10.0955 87.1791ZM4.50643 58.273C3.31251 58.2743 2.34511 59.2417 2.34375 60.4356V82.6726C2.34511 83.8666 3.31267 84.834 4.50643 84.8353H10.0953C11.2892 84.834 12.2566 83.8664 12.258 82.6726V60.4356C12.2566 59.2417 11.2892 58.2741 10.0953 58.273H4.50643Z" />
              <path d="M86.5699 78.0366H13.4301C12.783 78.0366 12.2583 77.512 12.2583 76.8648C12.2583 76.2177 12.783 75.6929 13.4301 75.6929H86.5701C87.2172 75.6929 87.7419 76.2175 87.7419 76.8648C87.7419 77.5121 87.2172 78.0366 86.5699 78.0366Z" />
              <path d="M46.6655 68.894H16.7647C14.2771 68.8911 12.261 66.8753 12.2583 64.3876V46.5406C12.2612 44.0529 14.2771 42.0369 16.7647 42.0342H46.6655C49.1531 42.0371 51.1692 44.0529 51.1719 46.5406V64.3876C51.169 66.8753 49.1531 68.8913 46.6655 68.894ZM16.7647 44.3778C15.5708 44.3791 14.6032 45.3465 14.6021 46.5404V64.3874C14.6034 65.5813 15.571 66.5489 16.7647 66.5501H46.6655C47.8594 66.5487 48.8268 65.5812 48.8281 64.3874V46.5406C48.8268 45.3467 47.8592 44.3791 46.6655 44.3779L16.7647 44.3778Z" />
              <path d="M83.2353 68.894H53.3345C50.8469 68.8911 48.8308 66.8753 48.8281 64.3876V46.5406C48.831 44.0529 50.8469 42.0369 53.3345 42.0342H83.2353C85.723 42.0371 87.739 44.0529 87.7417 46.5406V64.3876C87.739 66.8753 85.7231 68.8913 83.2353 68.894ZM53.3345 44.3778C52.1406 44.3791 51.1731 45.3467 51.1719 46.5404V64.3874C51.1732 65.5813 52.1408 66.5487 53.3345 66.5501H83.2353C84.4292 66.5487 85.3968 65.5812 85.398 64.3874V46.5406C85.3966 45.3467 84.429 44.3791 83.2353 44.3779L53.3345 44.3778Z" />
              <path d="M83.2353 87.1791H53.3345C50.8469 87.1763 48.8308 85.1604 48.8281 82.6727V71.057C48.831 68.5693 50.8469 66.5532 53.3345 66.5505H83.2353C85.723 66.5534 87.739 68.5693 87.7417 71.057V82.6727C87.739 85.1604 85.7231 87.1764 83.2353 87.1791ZM53.3345 68.8941C52.1406 68.8955 51.1732 69.863 51.1719 71.0568V82.6725C51.1732 83.8665 52.1408 84.8338 53.3345 84.8352H83.2353C84.4292 84.8338 85.3968 83.8663 85.398 82.6725V71.0568C85.3966 69.8629 84.429 68.8953 83.2353 68.8941H53.3345Z" />
              <path d="M95.4935 87.1791H89.9047C87.417 87.1762 85.401 85.1603 85.3983 82.6726V60.4356C85.4011 57.948 87.417 55.9319 89.9047 55.9292H95.4935C97.9812 55.9321 99.9973 57.948 100 60.4356V82.6726C99.9971 85.1603 97.9812 87.1764 95.4935 87.1791ZM89.9045 58.273C88.7106 58.2743 87.7432 59.2417 87.7418 60.4356V82.6726C87.7432 83.8666 88.7108 84.834 89.9045 84.8353H95.4934C96.6873 84.834 97.6549 83.8664 97.656 82.6725V60.4356C97.6547 59.2417 96.6873 58.2741 95.4934 58.273H89.9045Z" />
              <path d="M52.7396 68.8941H47.2604C46.6133 68.8941 46.0886 68.3694 46.0886 67.7223C46.0886 67.0751 46.6133 66.5503 47.2604 66.5503H52.7396C53.3867 66.5503 53.9116 67.075 53.9116 67.7223C53.9116 68.3696 53.3867 68.8941 52.7396 68.8941Z" />
              <path d="M71.4504 38.6387H28.5495C27.9024 38.6387 27.3777 38.1141 27.3777 37.4668V9.62467C27.3777 8.97754 27.9024 8.45288 28.5495 8.45288H71.4504C72.0976 8.45288 72.6222 8.97754 72.6222 9.62467V37.4668C72.6222 38.1139 72.0976 38.6387 71.4504 38.6387ZM29.7215 36.295H70.2787V10.7965H29.7215V36.295Z" />
              <path d="M67.5469 34.735H32.4531C31.8059 34.735 31.2813 34.2104 31.2813 33.5631V13.5282C31.2813 12.8811 31.8059 12.3564 32.4531 12.3564H67.5469C68.1942 12.3564 68.7188 12.8811 68.7188 13.5282V33.5631C68.7187 34.2104 68.194 34.735 67.5469 34.735ZM33.625 32.3913H66.3751V14.7002H33.625V32.3913Z" />
              <path d="M36.6535 30.4398C36.0063 30.4398 35.4815 29.9152 35.4815 29.268C35.4815 28.9572 35.605 28.6591 35.8247 28.4393L41.8511 22.4128C42.3087 21.9552 43.0508 21.9552 43.5084 22.4128L47.1655 26.0697C47.6231 26.5273 47.6231 27.2694 47.1655 27.727C46.7079 28.1846 45.9658 28.1846 45.5082 27.727L42.6798 24.8988L37.482 30.0966C37.2626 30.3167 36.9643 30.4402 36.6535 30.4398Z" />
              <path d="M63.3461 30.3798C63.0352 30.3802 62.7369 30.2567 62.5175 30.0366C61.0915 28.6106 59.6655 27.1839 58.2395 25.7565C56.6337 24.1528 55.0292 22.5482 53.4259 20.9428L52.6742 20.1916C52.4374 19.955 52.2006 19.7183 51.9638 19.4817L45.4418 26.0036C44.9842 26.4612 44.2421 26.4612 43.7845 26.0036C43.3269 25.546 43.3269 24.804 43.7845 24.3464L51.1356 16.9953C51.3553 16.7756 51.6535 16.6521 51.9643 16.6521H51.9651C52.2763 16.6523 52.5744 16.7763 52.7942 16.9965C53.3057 17.5094 53.8178 18.0219 54.331 18.5339L55.0839 19.2862C56.6866 20.891 58.291 22.4954 59.8971 24.0994C61.3217 25.5261 62.7477 26.9528 64.1751 28.3795C64.6327 28.8371 64.6327 29.5791 64.1751 30.0368C63.9548 30.2563 63.6569 30.3798 63.3461 30.3798Z" />
              <path d="M59.0688 26.1003C58.7582 26.1003 58.4602 25.9771 58.2405 25.7575C56.6334 24.1526 55.0285 22.5477 53.4256 20.9427C53.092 20.6087 52.9913 20.107 53.1704 19.6702C54.1886 17.1856 57.0281 15.9969 59.5128 17.015C61.9974 18.0332 63.1861 20.8727 62.168 23.3574C61.6742 24.5623 60.7177 25.5189 59.5128 26.0126C59.372 26.0706 59.2212 26.1003 59.0688 26.1003ZM55.7176 19.921C56.8981 21.1026 58.0796 22.2841 59.2624 23.4658C60.3398 22.5854 60.4994 20.9984 59.619 19.921C58.7386 18.8437 57.1516 18.6841 56.0742 19.5645C55.9438 19.671 55.8242 19.7905 55.7176 19.921Z" />
              <path d="M92.699 91.547C91.2829 91.5487 90.0485 90.5844 89.7074 89.21L88.9794 86.2906C88.8228 85.6626 89.2049 85.0266 89.8329 84.87C89.9257 84.8469 90.0209 84.8352 90.1165 84.8352H95.2814C95.9285 84.8352 96.4534 85.3599 96.4534 86.007C96.4534 86.1026 96.4417 86.1979 96.4186 86.2906L95.6905 89.21C95.3495 90.5844 94.115 91.5489 92.699 91.547ZM91.6165 87.179L91.9816 88.6428C92.0804 89.0389 92.4816 89.2801 92.8779 89.1813C93.1431 89.1151 93.3502 88.908 93.4164 88.6428L93.7814 87.1788L91.6165 87.179Z" />
              <path d="M7.30102 91.547C5.88497 91.5487 4.65051 90.5844 4.30946 89.21L3.58142 86.2906C3.42483 85.6626 3.80693 85.0266 4.43497 84.87C4.52771 84.8469 4.62298 84.8352 4.71859 84.8352H9.88346C10.5306 84.8352 11.0554 85.3599 11.0554 86.007C11.0554 86.1026 11.0438 86.1979 11.0206 86.2906L10.2926 89.21C9.95136 90.5844 8.7169 91.5489 7.30102 91.547ZM6.21859 87.179L6.58362 88.6428C6.68244 89.0389 7.08362 89.2801 7.47991 89.1813C7.74511 89.1151 7.95221 88.908 8.01842 88.6428L8.38346 87.1788L6.21859 87.179Z" />
            </g>
        </symbol>

        <symbol id="ico-map" viewBox="0 0 24 24">
            <path fill-rule="evenodd" clip-rule="evenodd" d="M12 1.75C9.81196 1.75 7.71354 2.61919 6.16637 4.16637C4.61919 5.71354 3.75 7.81196 3.75 10C3.75 13.1985 5.8243 16.2657 8.04446 18.6092C9.13921 19.7648 10.2365 20.7099 11.0609 21.3664C11.4432 21.6708 11.7656 21.9122 12 22.0825C12.2344 21.9122 12.5568 21.6708 12.9391 21.3664C13.7635 20.7099 14.8608 19.7648 15.9555 18.6092C18.1757 16.2657 20.25 13.1985 20.25 10C20.25 7.81196 19.3808 5.71354 17.8336 4.16637C16.2865 2.61919 14.188 1.75 12 1.75ZM12 23C11.584 23.624 11.5835 23.6238 11.5835 23.6238L11.581 23.6221L11.5748 23.6179L11.5528 23.603C11.5339 23.5902 11.5068 23.5716 11.4719 23.5475C11.4021 23.4992 11.3014 23.4284 11.1742 23.3365C10.9197 23.1528 10.5587 22.8839 10.1266 22.5398C9.2635 21.8526 8.11079 20.8602 6.95554 19.6408C4.6757 17.2343 2.25 13.8015 2.25 10C2.25 7.41414 3.27723 4.93419 5.10571 3.10571C6.93419 1.27723 9.41414 0.25 12 0.25C14.5859 0.25 17.0658 1.27723 18.8943 3.10571C20.7228 4.93419 21.75 7.41414 21.75 10C21.75 13.8015 19.3243 17.2343 17.0445 19.6408C15.8892 20.8602 14.7365 21.8526 13.8734 22.5398C13.4413 22.8839 13.0803 23.1528 12.8258 23.3365C12.6986 23.4284 12.5979 23.4992 12.5281 23.5475C12.4932 23.5716 12.4661 23.5902 12.4472 23.603L12.4252 23.6179L12.419 23.6221L12.4171 23.6233C12.4171 23.6233 12.416 23.624 12 23ZM12 23L12.416 23.624C12.1641 23.792 11.8355 23.7917 11.5835 23.6238L12 23Z"/>
            <path fill-rule="evenodd" clip-rule="evenodd" d="M12 7.75C10.7574 7.75 9.75 8.75736 9.75 10C9.75 11.2426 10.7574 12.25 12 12.25C13.2426 12.25 14.25 11.2426 14.25 10C14.25 8.75736 13.2426 7.75 12 7.75ZM8.25 10C8.25 7.92893 9.92893 6.25 12 6.25C14.0711 6.25 15.75 7.92893 15.75 10C15.75 12.0711 14.0711 13.75 12 13.75C9.92893 13.75 8.25 12.0711 8.25 10Z"/>
        </symbol>

        <symbol id="ico-calendar" viewBox="0 0 24 24">
            <path fill-rule="evenodd" clip-rule="evenodd" d="M5 4.75C4.30964 4.75 3.75 5.30964 3.75 6V20C3.75 20.6904 4.30964 21.25 5 21.25H19C19.6904 21.25 20.25 20.6904 20.25 20V6C20.25 5.30964 19.6904 4.75 19 4.75H5ZM2.25 6C2.25 4.48122 3.48122 3.25 5 3.25H19C20.5188 3.25 21.75 4.48122 21.75 6V20C21.75 21.5188 20.5188 22.75 19 22.75H5C3.48122 22.75 2.25 21.5188 2.25 20V6Z"/>
            <path fill-rule="evenodd" clip-rule="evenodd" d="M16 1.25C16.4142 1.25 16.75 1.58579 16.75 2V6C16.75 6.41421 16.4142 6.75 16 6.75C15.5858 6.75 15.25 6.41421 15.25 6V2C15.25 1.58579 15.5858 1.25 16 1.25Z"/>
            <path fill-rule="evenodd" clip-rule="evenodd" d="M8 1.25C8.41421 1.25 8.75 1.58579 8.75 2V6C8.75 6.41421 8.41421 6.75 8 6.75C7.58579 6.75 7.25 6.41421 7.25 6V2C7.25 1.58579 7.58579 1.25 8 1.25Z"/>
            <path fill-rule="evenodd" clip-rule="evenodd" d="M2.25 10C2.25 9.58579 2.58579 9.25 3 9.25H21C21.4142 9.25 21.75 9.58579 21.75 10C21.75 10.4142 21.4142 10.75 21 10.75H3C2.58579 10.75 2.25 10.4142 2.25 10Z"/>
        </symbol>

   </defs>
</svg>